<svg xmlns="http://www.w3.org/2000/svg" viewBox="0 0 64 64"><defs><style>.a{fill:#000842;}.b{fill:#f6ae2d;}.c{fill:#fff;}</style></defs><title>Plugin Icon</title><rect class="a" width="64" height="64"/><circle class="b" cx="44.41" cy="11.33" r="4.43"/><path class="c" d="M54.76,32.53l-.85-12a2.12,2.12,0,0,0-2.12-2H27.46c-1.37,0-1.92.53-3.09,1.25l-.23.15a2.93,2.93,0,0,1-1.66.75H12.23a2.12,2.12,0,0,0-2.12,2l-.85,12a2.13,2.13,0,0,0,2,2.27h.15a2.13,2.13,0,0,0,2.12-2l.71-10h.42V53.14a2.22,2.22,0,0,0,1.77,2.21,2.13,2.13,0,0,0,2.48-2.1V38.77h1.45V53.14a2.21,2.21,0,0,0,1.77,2.21,2.13,2.13,0,0,0,2.48-2.1V36.64l0-11.59,2.45-2.21L27,34.5V53.14a2.21,2.21,0,0,0,1.77,2.21,2.13,2.13,0,0,0,2.48-2.1V36.62H32.7V53.14a2.2,2.2,0,0,0,1.77,2.21,2.12,2.12,0,0,0,2.47-2.1V22.84h2.5V53.16A2.19,2.19,0,0,0,41,55.31a2.15,2.15,0,0,0,2.65-2.13V36.62h1.45V53.14a2.22,2.22,0,0,0,1.76,2.21,2.14,2.14,0,0,0,2.49-2.1V22.84h.42l.71,10a2.13,2.13,0,0,0,2.12,2h.15A2.13,2.13,0,0,0,54.76,32.53Z"/><circle class="b" cx="19.31" cy="13.96" r="4.43"/><circle class="b" cx="31.97" cy="10.33" r="4.43"/></svg>
