<svg xmlns="http://www.w3.org/2000/svg" viewBox="0 0 32 32"><defs><style>.a{fill:#f6ae2d;stroke:#000842;stroke-miterlimit:10;}.a,.b{isolation:isolate;}.b{fill:#fff;}.c{fill:#000842;}</style></defs><path class="a" d="M16.09,2.57A10.11,10.11,0,0,0,6.18,12.86c0,4.15,1.39,5.3,8.89,16.59a1.21,1.21,0,0,0,1.73.32,1.57,1.57,0,0,0,.31-.32C24.61,18.16,26,17,26,12.86A10.11,10.11,0,0,0,16.09,2.57Z"/><circle class="b" cx="15.97" cy="13.36" r="4.64"/><path class="c" d="M16,16a2.72,2.72,0,1,1,2.71-2.72A2.72,2.72,0,0,1,16,16Z"/></svg>
